<svg width="24" height="24" viewBox="0 0 24 24" fill="none" xmlns="http://www.w3.org/2000/svg">
<g id="loom">
<path id="Vector" d="M22.5 10.901H16.1027L21.6428 7.702L20.5442 5.798L15.0034 8.997L18.2013 3.4565L16.298 2.3575L13.0993 7.8966V1.5H10.9007V7.8973L7.70203 2.3575L5.79797 3.4565L8.9959 8.9956L3.45655 5.798L2.35721 7.702L7.89727 10.901H1.5V13.0997H7.89657L2.35721 16.2987L3.45585 18.2027L8.9966 15.0037L5.79797 20.5442L7.70133 21.6432L10.9007 16.1034V22.5H13.0993V15.9662L16.3567 21.6082L18.1419 20.5778L14.8837 14.9344L20.5428 18.202L21.6421 16.298L16.1027 13.099H22.4993V10.901H22.5ZM12 14.989C11.6075 14.989 11.2189 14.9118 10.8562 14.7616C10.4936 14.6114 10.1641 14.3912 9.88657 14.1136C9.60901 13.836 9.38882 13.5064 9.23858 13.1437C9.08834 12.781 9.01099 12.3923 9.01095 11.9997C9.0109 11.607 9.08816 11.2183 9.23831 10.8555C9.38847 10.4928 9.60858 10.1632 9.88607 9.88551C10.1636 9.60786 10.493 9.3876 10.8556 9.23731C11.2182 9.08702 11.6068 9.00965 11.9993 9.0096C12.792 9.00951 13.5522 9.3244 14.1127 9.88502C14.6733 10.4456 14.9883 11.206 14.9884 11.999C14.9884 12.7919 14.6737 13.5523 14.1132 14.1131C13.5528 14.6738 12.7927 14.9889 12 14.989Z" fill="#2E90FA"/>
</g>
</svg>
